<svg xmlns="http://www.w3.org/2000/svg" xmlns:xlink="http://www.w3.org/1999/xlink" width="638.54" height="102.19" viewBox="0 0 638.54 102.19">
  <defs>
    <style>
      .cls-1 {
        fill: url(#linear-gradient);
      }

      .cls-2 {
        fill: url(#linear-gradient-2);
      }

      .cls-3 {
        fill: url(#linear-gradient-3);
      }

      .cls-4 {
        fill: url(#linear-gradient-4);
      }

      .cls-5 {
        fill: url(#linear-gradient-5);
      }

      .cls-6 {
        fill: url(#linear-gradient-6);
      }

      .cls-7 {
        fill: url(#linear-gradient-7);
      }

      .cls-8 {
        fill: url(#linear-gradient-8);
      }

      .cls-9 {
        fill: #010202;
      }
    </style>
    <linearGradient id="linear-gradient" x1="218.76" y1="810.06" x2="218.76" y2="785.37" gradientTransform="matrix(1, 0, 0, -1, -123.36, 820.91)" gradientUnits="userSpaceOnUse">
      <stop offset="0" stop-color="#6f56fd"/>
      <stop offset="1" stop-color="#00cabe"/>
    </linearGradient>
    <linearGradient id="linear-gradient-2" x1="192.32" y1="729.78" x2="192.32" y2="754.96" xlink:href="#linear-gradient"/>
    <linearGradient id="linear-gradient-3" x1="170.37" y1="796.81" x2="170.37" y2="780.35" xlink:href="#linear-gradient"/>
    <linearGradient id="linear-gradient-4" x1="150.91" y1="751.6" x2="150.91" y2="763.22" xlink:href="#linear-gradient"/>
    <linearGradient id="linear-gradient-5" x1="271.58" y1="757.25" x2="271.58" y2="765.34" xlink:href="#linear-gradient"/>
    <linearGradient id="linear-gradient-6" x1="131.65" y1="783.29" x2="131.65" y2="775.21" xlink:href="#linear-gradient"/>
    <linearGradient id="linear-gradient-7" x1="240.22" y1="739.91" x2="240.22" y2="758.79" xlink:href="#linear-gradient"/>
    <linearGradient id="linear-gradient-8" x1="256.18" y1="797.59" x2="256.18" y2="780.64" xlink:href="#linear-gradient"/>
  </defs>
  <g id="Layer_2" data-name="Layer 2">
    <g id="Layer_1-2" data-name="Layer 1">
      <g>
        <g>
          <path class="cls-1" d="M82.43,13a13,13,0,0,1,13-13h0a13,13,0,0,1,13,13V50.6H82.43Z"/>
          <path class="cls-2" d="M82.43,88.72A13.48,13.48,0,0,1,69,102.19h0A13.48,13.48,0,0,1,55.49,88.72V50.6H82.43Z"/>
          <path class="cls-3" d="M38.52,25.35A8.48,8.48,0,0,1,47,16.87h0a8.48,8.48,0,0,1,8.49,8.48V50.6h-17Z"/>
          <path class="cls-4" d="M38.52,63.43a11,11,0,0,1-11,11h0a11,11,0,0,1-11-11V50.6h22Z"/>
          <path class="cls-5" d="M156.5,58.92a8.28,8.28,0,0,1-8.28,8.28h0a8.29,8.29,0,0,1-8.29-8.28V50.63H156.5Z"/>
          <path class="cls-6" d="M0,42.35a8.29,8.29,0,0,1,8.29-8.29h0a8.29,8.29,0,0,1,8.28,8.29v8.28H0Z"/>
          <path class="cls-7" d="M125.34,80.81a8.49,8.49,0,0,1-8.49,8.48h0a8.48,8.48,0,0,1-8.48-8.48V50.6h17Z"/>
          <path class="cls-8" d="M125.34,23.36a7.48,7.48,0,0,1,7.48-7.49h0a7.48,7.48,0,0,1,7.48,7.49V50.6h-15Z"/>
        </g>
        <path class="cls-9" d="M206.79,79.19q-14.14,0-22.73-6.94a22.52,22.52,0,0,1-8.58-18.38,22.49,22.49,0,0,1,8.58-18.38q8.58-6.93,22.73-7,13.94,0,22.52,6t8.8,15.67V58H193.26q2.4,8.76,18.72,8.76c2,0,4-.07,5.83-.23s3.43-.36,4.63-.58a38.64,38.64,0,0,0,4.05-1c1.49-.44,2.58-.79,3.29-1s1.74-.66,3.17-1.25l2.87-1.14v13a87.18,87.18,0,0,1-13.33,3.62A92.85,92.85,0,0,1,206.79,79.19ZM192.86,51.3,221,50.73a8.38,8.38,0,0,0-4.16-6.8,18.55,18.55,0,0,0-10-2.42,16.23,16.23,0,0,0-9.42,2.61A10.25,10.25,0,0,0,192.86,51.3Z"/>
        <path class="cls-9" d="M240.94,77.67V30.06h19.35l-2.08,19.61H259q1.88-10.74,8-15.94T285,28.54c5.13.07,9.2.92,12.18,2.58s5.25,4.56,6.82,8.72,2.34,9.89,2.34,17.18V77.67H288.38v-19q0-9.9-3-13.85c-2-2.63-5.41-3.94-10.2-3.94A14,14,0,0,0,263.36,47q-4.53,6.19-4.53,16.09V77.68H240.94Z"/>
        <path class="cls-9" d="M309.14,77.67V69.48l37.45-27.13H310V30.06h67.71v8L340.46,65.3h36.21V77.67Z"/>
        <path class="cls-9" d="M398.63,96.71,410.18,77.1l-29.65-47h20.29L419.35,60.9l18.42-30.84h19.66L418.31,96.71Z"/>
        <path class="cls-9" d="M460.3,77.67V30.06h19.35l-2.08,19.61h.83q1.88-10.74,8-15.94t17.91-5.19q10,.2,14.83,4.76c3.22,3.05,5.19,8.5,5.87,16.37h.84q1.88-10.74,8-15.94t17.89-5.19c5.12.07,9.19.92,12.17,2.58s5.25,4.56,6.81,8.72,2.34,9.89,2.34,17.18V77.67H555.17v-19c0-6.67-1-11.3-3-13.9s-5.42-3.89-10.19-3.89A14,14,0,0,0,530.17,47q-4.51,6.19-4.52,16.09V77.68H507.74V58.63q0-10-3-13.9c-2-2.59-5.41-3.89-10.2-3.89A14,14,0,0,0,482.72,47q-4.53,6.19-4.53,16.09V77.68H460.3Z"/>
        <path class="cls-9" d="M607.22,79.19q-14.15,0-22.72-6.94a22.5,22.5,0,0,1-8.59-18.38,22.47,22.47,0,0,1,8.59-18.38q8.57-6.93,22.72-7,13.93,0,22.52,6t8.8,15.67V58H593.69q2.4,8.77,18.72,8.77c2,0,4-.07,5.83-.23s3.43-.36,4.63-.58a38.64,38.64,0,0,0,4-1c1.49-.44,2.58-.79,3.29-1s1.74-.66,3.17-1.25l2.87-1.14v13a87.18,87.18,0,0,1-13.33,3.62A92.85,92.85,0,0,1,607.22,79.19Zm-14-27.89,28.1-.57a8.39,8.39,0,0,0-4.17-6.8,18.51,18.51,0,0,0-10-2.42,16.13,16.13,0,0,0-9.41,2.61A10.36,10.36,0,0,0,593.27,51.3Z"/>
      </g>
    </g>
  </g>
</svg>
